<?xml version="1.0" encoding="utf-8"?>
<!-- Generator: Adobe Illustrator 21.0.2, SVG Export Plug-In . SVG Version: 6.00 Build 0)  -->
<svg version="1.1" id="Слой_1" xmlns="http://www.w3.org/2000/svg" xmlns:xlink="http://www.w3.org/1999/xlink" x="0px" y="0px"
	 viewBox="0 0 1406 417" style="enable-background:new 0 0 1406 417;" xml:space="preserve">
<style type="text/css">
	.st0{display:none;}
	.st1{display:inline;}
	.st2{fill:none;stroke:#000000;stroke-width:9;stroke-miterlimit:10;}
</style>
<g class="st0">
	<g class="st1">
		<path d="M-281.9,93.9c-0.6,9.3-1.2,18.5-1.9,27.8c-0.1,1.9,2.9,1.9,3,0c0.7-9.3,1.3-18.5,1.9-27.8C-278.8,92-281.8,92-281.9,93.9
			L-281.9,93.9z"/>
	</g>
</g>
<g class="st0">
	<g class="st1">
		<path d="M-278.7,30c-0.3,8.1-0.6,16.2-1,24.3c-0.1,1.9,2.9,1.9,3,0c0.4-8.1,0.7-16.2,1-24.3C-275.6,28-278.6,28-278.7,30
			L-278.7,30z"/>
	</g>
</g>
<g class="st0">
	<g class="st1">
		<path d="M-304,316c0,26.6,2.5,53.3,8.6,79.2c1.7,7.1,9.8,11.3,16.6,9.4c7.3-2,11.1-9.5,9.4-16.6c-5.6-23.7-7.7-47.7-7.7-72
			C-276.9,298.6-303.9,298.6-304,316L-304,316z"/>
	</g>
</g>
<g class="st0">
	<g class="st1">
		<path d="M-319,366c-0.5,51.3-6.2,102.4-15.3,152.9c-1.3,7.2,2,14.6,9.4,16.6c6.5,1.8,15.3-2.2,16.6-9.4
			c9.6-52.8,15.8-106.4,16.3-160.1C-291.9,348.6-318.9,348.6-319,366L-319,366z"/>
	</g>
</g>
<g class="st0">
	<g class="st1">
		<path d="M-316.9,166.1c-1.6,43.4,0.3,86.9-1.1,130.3c-0.2,7.3,6.4,13.5,13.5,13.5c7.5,0,13.3-6.2,13.5-13.5
			c1.4-43.4-0.5-86.9,1.1-130.3c0.3-7.3-6.4-13.5-13.5-13.5C-310.9,152.6-316.6,158.7-316.9,166.1L-316.9,166.1z"/>
	</g>
</g>
<g class="st0">
	<g class="st1">
		<path d="M-287,390c-5.7,80.7-8,161.6-6.8,242.4c0.4,23.2,1,46.4,1.9,69.6c0.3,7.3,6,13.5,13.5,13.5c7.1,0,13.8-6.2,13.5-13.5
			c-3.2-80.8-3-161.7,0.8-242.5c1.1-23.2,2.5-46.3,4.1-69.5c0.5-7.3-6.6-13.5-13.5-13.5C-281.2,376.5-286.5,382.7-287,390L-287,390z
			"/>
	</g>
</g>
<g class="st0">
	<g class="st1">
		<path d="M-330.9,879.1c11.1-1.5,22.1-3.1,33.2-4.6c7.2-1,11.2-10.2,9.4-16.6c-2.1-7.8-9.4-10.4-16.6-9.4
			c-11.1,1.5-22.1,3.1-33.2,4.6c-7.2,1-11.2,10.2-9.4,16.6C-345.3,877.5-338.1,880.2-330.9,879.1L-330.9,879.1z"/>
	</g>
</g>
<polyline class="st2" points="223.5,48.5 126.5,57.5 73.5,102.5 37.5,187.5 37.5,270.5 82.5,327.5 136.5,367.5 223.5,330.5 "/>
<polygon class="st2" points="387.5,64.5 327.5,133.5 295.5,232.5 363.5,360.5 450.5,367.5 498.5,283.5 517.5,194.5 481.5,117.5 
	451.5,70.5 "/>
<polyline class="st2" points="586.5,367.5 625.5,31.5 714.5,165.5 783.5,40.5 840.5,367.5 "/>
<polyline class="st2" points="907.5,367.5 948.5,48.5 1065.5,82.5 1081.5,153.5 1090.5,232.5 1011.5,249.5 931.5,235.5 "/>
<polyline class="st2" points="1149.5,244.5 1116.5,252.5 1104.5,270.5 1113.5,291.5 1137.5,291.5 1149.5,310.5 1137.5,337.5 
	1104.5,337.5 "/>
<polygon class="st2" points="1274.5,247.5 1254.5,271.5 1254.5,300.5 1254.5,327.5 1283.5,340.5 1298.5,322.5 1307.5,303.5 
	1307.5,274.5 1295.5,254.5 "/>
<line class="st2" x1="1181.5" y1="244.5" x2="1179.5" y2="337.5"/>
<line class="st2" x1="1226.5" y1="244.5" x2="1221.5" y2="337.5"/>
<line class="st2" x1="1181.5" y1="286.5" x2="1224" y2="288.5"/>
<polyline class="st2" points="1330.5,340.5 1335.5,244.5 1369.5,246.5 1375.5,254.5 1386.5,277.5 1377.5,288.5 1361.5,297.5 
	1336.5,296.5 "/>
</svg>
